<svg width="30" height="30" viewBox="0 0 437 437" fill="none" xmlns="http://www.w3.org/2000/svg">
<path d="M38.0827 430.078L132.161 336C164.083 361.199 204.399 376.32 248.641 376.32C352.241 376.879 436.801 292.32 436.801 188.16C436.801 84.56 352.242 0 248.641 0C145.041 0 59.9207 84.559 59.9207 188.16C59.9207 231.84 75.0417 272.16 100.241 304.64L6.72068 398.718C-2.24022 407.679 -2.24022 421.679 6.72068 430.64C11.2012 434.558 16.7987 436.796 22.4007 436.796C28.0027 436.796 33.5997 434.558 38.0807 430.077L38.0827 430.078ZM248.643 44.798C327.604 44.798 392.003 109.2 392.003 188.158C392.003 267.119 327.605 331.518 248.643 331.518C169.682 331.518 104.723 267.678 104.723 188.158C104.723 109.197 169.121 44.798 248.643 44.798Z" fill="#050FAA"/>
</svg>
